<svg width="56" height="52" viewBox="0 0 56 52" fill="none" xmlns="http://www.w3.org/2000/svg">
<path d="M32.7906 10.0232C32.6485 10.0232 32.5063 10.0232 32.3641 10.0334C26.7203 10.3086 21.1969 16.2195 16.2969 16.8898C9.87767 17.7633 6.07908 17.4484 5.5147 22.8313C5.34408 24.4055 4.58829 25.1266 4.07205 26.7313C3.33595 27.3 2.23126 27.7469 2.18642 28.6305C2.13392 29.6664 2.02345 30.743 2.84267 31.6773L4.44173 30.682C4.35314 28.3156 5.02908 27.3711 6.0408 25.2484C6.4072 28.3156 5.57267 31.0375 4.69548 34.257C5.0772 36.8773 5.69736 39.5586 6.9497 41.9758H10.885C8.58814 39.6297 7.19798 36.8977 8.46673 34.257C9.42486 34.1352 10.7964 33.9016 11.6266 33.1805C13.1141 36.532 13.5625 38.9695 16.0125 41.9758H20.4422C18.211 39.3555 14.886 38.2992 15.6844 32.7234C19.0094 32.7844 20.3875 33.4141 25.3203 32.1242L25.0141 35.7398C25.7578 38.157 27.6719 39.975 29.2141 41.9758H33.436C31.5656 39.9852 28.5031 38.9086 29.0063 34.9477L29.9578 32.4594C32.3422 35.7703 34.5297 39.1422 38.4781 41.9758H42.4156C39.9875 39.5891 35.4375 37.0297 35.525 32.4594C38.0078 32.9164 38.7844 33.4547 40.0094 33.0688C40.9828 35.4859 42.0984 37.6188 44.0563 38.8172C46.3531 36.4305 46.8453 35.1914 46.9219 32.043L49.3828 33.4852C50.0719 33.9523 51.5594 32.9367 51.4391 32.1953L51.0235 28.9961C51.6469 27.7875 52.4344 26.6195 53.8125 25.6039C54.0969 22.9125 52.7188 20.4141 51.0672 17.875C50.4766 16.9609 47.5453 17.1844 45.6094 16.6563C40.5125 13.9445 37.1985 10.0577 32.7906 10.0232ZM40.8188 13.6398L41.6391 15.1125C42.8531 17.2961 43.4875 18.3219 46.736 19.7031C47.3703 20.0484 47.95 20.5766 48.1688 21.125C48.3875 21.7039 48.3656 22.293 48.2125 22.8313C47.9063 23.9586 46.4844 25.1266 45.4453 24.832C41.8578 23.7148 39.8016 22.293 39.0031 20.4852C38.2047 18.6773 38.8281 16.7781 39.9109 15.0617L40.8188 13.6398ZM40.8406 17.5094C40.5453 18.3523 40.5235 19.1039 40.8188 19.7844C41.2891 20.8406 42.7 22.0086 45.8719 23.0344C46.3203 22.425 46.6594 21.6938 45.9156 21.3688C43.8484 20.3531 41.9672 19.0836 40.8406 17.5094ZM49.9844 24.2938C49.6563 25.2078 49.9188 25.9797 50.5203 26.6906C49.6781 26.5383 48.5406 26.7313 48.311 25.8883C48.1469 25.2891 49.0875 24.7914 49.9844 24.2938Z" fill="#009CB7"/>
</svg>
